<svg width="920" height="720" viewBox="0 0 920 720" fill="none" xmlns="http://www.w3.org/2000/svg">
  <defs>
    <linearGradient id="bg" x1="0" y1="0" x2="920" y2="720" gradientUnits="userSpaceOnUse">
      <stop offset="0" stop-color="#0f172a"/>
      <stop offset="1" stop-color="#1e3a8a"/>
    </linearGradient>
    <linearGradient id="panel" x1="120" y1="130" x2="810" y2="610" gradientUnits="userSpaceOnUse">
      <stop offset="0" stop-color="#eff6ff" stop-opacity="0.95"/>
      <stop offset="1" stop-color="#dcfce7" stop-opacity="0.95"/>
    </linearGradient>
  </defs>

  <rect width="920" height="720" fill="url(#bg)"/>

  <rect x="78" y="88" width="764" height="544" rx="18" fill="#0b1220" stroke="#1d4ed8" stroke-opacity="0.45"/>
  <rect x="120" y="130" width="680" height="460" rx="14" fill="url(#panel)"/>

  <rect x="160" y="178" width="300" height="22" rx="6" fill="#1d4ed8" fill-opacity="0.18"/>
  <rect x="160" y="214" width="420" height="10" rx="5" fill="#334155" fill-opacity="0.24"/>

  <rect x="160" y="260" width="290" height="150" rx="12" fill="#ffffff" stroke="#cbd5e1"/>
  <rect x="176" y="278" width="120" height="10" rx="5" fill="#1d4ed8" fill-opacity="0.28"/>
  <rect x="176" y="300" width="258" height="9" rx="4.5" fill="#334155" fill-opacity="0.20"/>
  <rect x="176" y="320" width="238" height="9" rx="4.5" fill="#334155" fill-opacity="0.20"/>

  <rect x="480" y="260" width="280" height="150" rx="12" fill="#ffffff" stroke="#cbd5e1"/>
  <rect x="496" y="278" width="110" height="10" rx="5" fill="#16a34a" fill-opacity="0.30"/>
  <rect x="496" y="300" width="248" height="9" rx="4.5" fill="#334155" fill-opacity="0.20"/>
  <rect x="496" y="320" width="220" height="9" rx="4.5" fill="#334155" fill-opacity="0.20"/>

  <rect x="160" y="430" width="600" height="120" rx="12" fill="#ffffff" stroke="#cbd5e1"/>
  <rect x="176" y="448" width="96" height="10" rx="5" fill="#1d4ed8" fill-opacity="0.30"/>
  <rect x="176" y="470" width="568" height="9" rx="4.5" fill="#334155" fill-opacity="0.20"/>
  <rect x="176" y="490" width="536" height="9" rx="4.5" fill="#334155" fill-opacity="0.20"/>

  <circle cx="780" cy="160" r="36" fill="#16a34a" fill-opacity="0.30"/>
  <circle cx="726" cy="126" r="18" fill="#1d4ed8" fill-opacity="0.40"/>

  <text x="122" y="70" fill="#93c5fd" font-size="20" font-family="Segoe UI, Tahoma, sans-serif" font-weight="700">MICROERP</text>
</svg>
